<mxfile host="app.diagrams.net" modified="2024-04-28T12:38:38.621Z" agent="Mozilla/5.0 (Windows NT 10.0; Win64; x64) AppleWebKit/537.36 (KHTML, like Gecko) Chrome/124.0.0.0 Safari/537.36" etag="21zISsqceeHVaLv-oVyA" version="24.3.1" type="google">
  <diagram name="Page-1" id="2YBvvXClWsGukQMizWep">
    <mxGraphModel grid="1" page="1" gridSize="10" guides="1" tooltips="1" connect="1" arrows="1" fold="1" pageScale="1" pageWidth="850" pageHeight="1100" math="0" shadow="0">
      <root>
        <mxCell id="0" />
        <mxCell id="1" parent="0" />
        <mxCell id="aM9ryv3xv72pqoxQDRHE-1" value=":main_screen" style="shape=umlLifeline;perimeter=lifelinePerimeter;whiteSpace=wrap;html=1;container=0;dropTarget=0;collapsible=0;recursiveResize=0;outlineConnect=0;portConstraint=eastwest;newEdgeStyle={&quot;edgeStyle&quot;:&quot;elbowEdgeStyle&quot;,&quot;elbow&quot;:&quot;vertical&quot;,&quot;curved&quot;:0,&quot;rounded&quot;:0};" vertex="1" parent="1">
          <mxGeometry x="120" y="50" width="100" height="790" as="geometry" />
        </mxCell>
        <mxCell id="aM9ryv3xv72pqoxQDRHE-2" value="" style="html=1;points=[];perimeter=orthogonalPerimeter;outlineConnect=0;targetShapes=umlLifeline;portConstraint=eastwest;newEdgeStyle={&quot;edgeStyle&quot;:&quot;elbowEdgeStyle&quot;,&quot;elbow&quot;:&quot;vertical&quot;,&quot;curved&quot;:0,&quot;rounded&quot;:0};" vertex="1" parent="aM9ryv3xv72pqoxQDRHE-1">
          <mxGeometry x="45" y="110" width="10" height="50" as="geometry" />
        </mxCell>
        <mxCell id="aM9ryv3xv72pqoxQDRHE-5" value=":favorites" style="shape=umlLifeline;perimeter=lifelinePerimeter;whiteSpace=wrap;html=1;container=0;dropTarget=0;collapsible=0;recursiveResize=0;outlineConnect=0;portConstraint=eastwest;newEdgeStyle={&quot;edgeStyle&quot;:&quot;elbowEdgeStyle&quot;,&quot;elbow&quot;:&quot;vertical&quot;,&quot;curved&quot;:0,&quot;rounded&quot;:0};" vertex="1" parent="1">
          <mxGeometry x="300" y="50" width="100" height="460" as="geometry" />
        </mxCell>
        <mxCell id="aM9ryv3xv72pqoxQDRHE-6" value="" style="html=1;points=[];perimeter=orthogonalPerimeter;outlineConnect=0;targetShapes=umlLifeline;portConstraint=eastwest;newEdgeStyle={&quot;edgeStyle&quot;:&quot;elbowEdgeStyle&quot;,&quot;elbow&quot;:&quot;vertical&quot;,&quot;curved&quot;:0,&quot;rounded&quot;:0};" vertex="1" parent="aM9ryv3xv72pqoxQDRHE-5">
          <mxGeometry x="45" y="120" width="10" height="340" as="geometry" />
        </mxCell>
        <mxCell id="zpIUWs2bYKSunlIERRQk-4" value="Πελάτης" style="shape=umlActor;verticalLabelPosition=bottom;verticalAlign=top;html=1;outlineConnect=0;" vertex="1" parent="1">
          <mxGeometry x="30" y="40" width="30" height="60" as="geometry" />
        </mxCell>
        <mxCell id="zpIUWs2bYKSunlIERRQk-6" value=":favorite_screen" style="shape=umlLifeline;perimeter=lifelinePerimeter;whiteSpace=wrap;html=1;container=0;dropTarget=0;collapsible=0;recursiveResize=0;outlineConnect=0;portConstraint=eastwest;newEdgeStyle={&quot;edgeStyle&quot;:&quot;elbowEdgeStyle&quot;,&quot;elbow&quot;:&quot;vertical&quot;,&quot;curved&quot;:0,&quot;rounded&quot;:0};" vertex="1" parent="1">
          <mxGeometry x="480" y="50" width="100" height="790" as="geometry" />
        </mxCell>
        <mxCell id="zpIUWs2bYKSunlIERRQk-7" value="" style="html=1;points=[];perimeter=orthogonalPerimeter;outlineConnect=0;targetShapes=umlLifeline;portConstraint=eastwest;newEdgeStyle={&quot;edgeStyle&quot;:&quot;elbowEdgeStyle&quot;,&quot;elbow&quot;:&quot;vertical&quot;,&quot;curved&quot;:0,&quot;rounded&quot;:0};" vertex="1" parent="zpIUWs2bYKSunlIERRQk-6">
          <mxGeometry x="45" y="80" width="10" height="170" as="geometry" />
        </mxCell>
        <mxCell id="zpIUWs2bYKSunlIERRQk-9" value=":buy_delete_screen" style="shape=umlLifeline;perimeter=lifelinePerimeter;whiteSpace=wrap;html=1;container=0;dropTarget=0;collapsible=0;recursiveResize=0;outlineConnect=0;portConstraint=eastwest;newEdgeStyle={&quot;edgeStyle&quot;:&quot;elbowEdgeStyle&quot;,&quot;elbow&quot;:&quot;vertical&quot;,&quot;curved&quot;:0,&quot;rounded&quot;:0};" vertex="1" parent="1">
          <mxGeometry x="640" y="50" width="110" height="790" as="geometry" />
        </mxCell>
        <mxCell id="zpIUWs2bYKSunlIERRQk-10" value="" style="html=1;points=[];perimeter=orthogonalPerimeter;outlineConnect=0;targetShapes=umlLifeline;portConstraint=eastwest;newEdgeStyle={&quot;edgeStyle&quot;:&quot;elbowEdgeStyle&quot;,&quot;elbow&quot;:&quot;vertical&quot;,&quot;curved&quot;:0,&quot;rounded&quot;:0};" vertex="1" parent="zpIUWs2bYKSunlIERRQk-9">
          <mxGeometry x="45" y="240" width="10" height="230" as="geometry" />
        </mxCell>
        <mxCell id="zpIUWs2bYKSunlIERRQk-12" value="" style="endArrow=none;dashed=1;html=1;rounded=0;" edge="1" parent="1">
          <mxGeometry width="50" height="50" relative="1" as="geometry">
            <mxPoint x="45" y="840" as="sourcePoint" />
            <mxPoint x="45" y="130" as="targetPoint" />
          </mxGeometry>
        </mxCell>
        <mxCell id="zpIUWs2bYKSunlIERRQk-13" value="" style="endArrow=classic;html=1;rounded=0;" edge="1" parent="1" target="aM9ryv3xv72pqoxQDRHE-1">
          <mxGeometry width="50" height="50" relative="1" as="geometry">
            <mxPoint x="50" y="160" as="sourcePoint" />
            <mxPoint x="100" y="110" as="targetPoint" />
          </mxGeometry>
        </mxCell>
        <mxCell id="zpIUWs2bYKSunlIERRQk-14" value="select_favorite()" style="text;html=1;align=center;verticalAlign=middle;resizable=0;points=[];autosize=1;strokeColor=none;fillColor=none;" vertex="1" parent="1">
          <mxGeometry x="55" y="138" width="110" height="30" as="geometry" />
        </mxCell>
        <mxCell id="zpIUWs2bYKSunlIERRQk-15" value="" style="endArrow=classic;html=1;rounded=0;" edge="1" parent="1" target="aM9ryv3xv72pqoxQDRHE-5">
          <mxGeometry width="50" height="50" relative="1" as="geometry">
            <mxPoint x="180" y="178" as="sourcePoint" />
            <mxPoint x="230" y="128" as="targetPoint" />
          </mxGeometry>
        </mxCell>
        <mxCell id="zpIUWs2bYKSunlIERRQk-16" value="get_favorites()" style="text;html=1;align=center;verticalAlign=middle;resizable=0;points=[];autosize=1;strokeColor=none;fillColor=none;" vertex="1" parent="1">
          <mxGeometry x="210" y="148" width="100" height="30" as="geometry" />
        </mxCell>
        <mxCell id="zpIUWs2bYKSunlIERRQk-17" value="display_favorite()" style="text;html=1;align=center;verticalAlign=middle;resizable=0;points=[];autosize=1;strokeColor=none;fillColor=none;" vertex="1" parent="1">
          <mxGeometry x="385" y="178" width="110" height="30" as="geometry" />
        </mxCell>
        <mxCell id="zpIUWs2bYKSunlIERRQk-18" value="" style="endArrow=classic;html=1;rounded=0;" edge="1" parent="1" target="zpIUWs2bYKSunlIERRQk-6">
          <mxGeometry width="50" height="50" relative="1" as="geometry">
            <mxPoint x="50" y="240" as="sourcePoint" />
            <mxPoint x="100" y="190" as="targetPoint" />
          </mxGeometry>
        </mxCell>
        <mxCell id="zpIUWs2bYKSunlIERRQk-19" value="select_product()" style="text;html=1;align=center;verticalAlign=middle;resizable=0;points=[];autosize=1;strokeColor=none;fillColor=none;" vertex="1" parent="1">
          <mxGeometry x="205" y="218" width="110" height="30" as="geometry" />
        </mxCell>
        <mxCell id="zpIUWs2bYKSunlIERRQk-23" value=":product" style="shape=umlLifeline;perimeter=lifelinePerimeter;whiteSpace=wrap;html=1;container=0;dropTarget=0;collapsible=0;recursiveResize=0;outlineConnect=0;portConstraint=eastwest;newEdgeStyle={&quot;edgeStyle&quot;:&quot;elbowEdgeStyle&quot;,&quot;elbow&quot;:&quot;vertical&quot;,&quot;curved&quot;:0,&quot;rounded&quot;:0};" vertex="1" parent="1">
          <mxGeometry x="820" y="50" width="110" height="530" as="geometry" />
        </mxCell>
        <mxCell id="zpIUWs2bYKSunlIERRQk-24" value="" style="html=1;points=[];perimeter=orthogonalPerimeter;outlineConnect=0;targetShapes=umlLifeline;portConstraint=eastwest;newEdgeStyle={&quot;edgeStyle&quot;:&quot;elbowEdgeStyle&quot;,&quot;elbow&quot;:&quot;vertical&quot;,&quot;curved&quot;:0,&quot;rounded&quot;:0};" vertex="1" parent="zpIUWs2bYKSunlIERRQk-23">
          <mxGeometry x="45" y="450" width="10" height="80" as="geometry" />
        </mxCell>
        <mxCell id="zpIUWs2bYKSunlIERRQk-26" value=":bookshop" style="shape=umlLifeline;perimeter=lifelinePerimeter;whiteSpace=wrap;html=1;container=0;dropTarget=0;collapsible=0;recursiveResize=0;outlineConnect=0;portConstraint=eastwest;newEdgeStyle={&quot;edgeStyle&quot;:&quot;elbowEdgeStyle&quot;,&quot;elbow&quot;:&quot;vertical&quot;,&quot;curved&quot;:0,&quot;rounded&quot;:0};" vertex="1" parent="1">
          <mxGeometry x="980" y="10" width="110" height="630" as="geometry" />
        </mxCell>
        <mxCell id="zpIUWs2bYKSunlIERRQk-27" value="" style="html=1;points=[];perimeter=orthogonalPerimeter;outlineConnect=0;targetShapes=umlLifeline;portConstraint=eastwest;newEdgeStyle={&quot;edgeStyle&quot;:&quot;elbowEdgeStyle&quot;,&quot;elbow&quot;:&quot;vertical&quot;,&quot;curved&quot;:0,&quot;rounded&quot;:0};" vertex="1" parent="zpIUWs2bYKSunlIERRQk-26">
          <mxGeometry x="45" y="530" width="10" height="100" as="geometry" />
        </mxCell>
        <mxCell id="zpIUWs2bYKSunlIERRQk-29" value=":inventory" style="shape=umlLifeline;perimeter=lifelinePerimeter;whiteSpace=wrap;html=1;container=0;dropTarget=0;collapsible=0;recursiveResize=0;outlineConnect=0;portConstraint=eastwest;newEdgeStyle={&quot;edgeStyle&quot;:&quot;elbowEdgeStyle&quot;,&quot;elbow&quot;:&quot;vertical&quot;,&quot;curved&quot;:0,&quot;rounded&quot;:0};" vertex="1" parent="1">
          <mxGeometry x="1160" y="50" width="110" height="790" as="geometry" />
        </mxCell>
        <mxCell id="zpIUWs2bYKSunlIERRQk-30" value="" style="html=1;points=[];perimeter=orthogonalPerimeter;outlineConnect=0;targetShapes=umlLifeline;portConstraint=eastwest;newEdgeStyle={&quot;edgeStyle&quot;:&quot;elbowEdgeStyle&quot;,&quot;elbow&quot;:&quot;vertical&quot;,&quot;curved&quot;:0,&quot;rounded&quot;:0};" vertex="1" parent="zpIUWs2bYKSunlIERRQk-29">
          <mxGeometry x="45" y="540" width="10" height="60" as="geometry" />
        </mxCell>
        <mxCell id="zpIUWs2bYKSunlIERRQk-32" value=":cart" style="shape=umlLifeline;perimeter=lifelinePerimeter;whiteSpace=wrap;html=1;container=0;dropTarget=0;collapsible=0;recursiveResize=0;outlineConnect=0;portConstraint=eastwest;newEdgeStyle={&quot;edgeStyle&quot;:&quot;elbowEdgeStyle&quot;,&quot;elbow&quot;:&quot;vertical&quot;,&quot;curved&quot;:0,&quot;rounded&quot;:0};" vertex="1" parent="1">
          <mxGeometry x="1330" y="43" width="110" height="770" as="geometry" />
        </mxCell>
        <mxCell id="zpIUWs2bYKSunlIERRQk-33" value="" style="html=1;points=[];perimeter=orthogonalPerimeter;outlineConnect=0;targetShapes=umlLifeline;portConstraint=eastwest;newEdgeStyle={&quot;edgeStyle&quot;:&quot;elbowEdgeStyle&quot;,&quot;elbow&quot;:&quot;vertical&quot;,&quot;curved&quot;:0,&quot;rounded&quot;:0};" vertex="1" parent="zpIUWs2bYKSunlIERRQk-32">
          <mxGeometry x="45" y="520" width="10" height="250" as="geometry" />
        </mxCell>
        <mxCell id="zpIUWs2bYKSunlIERRQk-38" value="" style="endArrow=classic;html=1;rounded=0;" edge="1" parent="1" target="zpIUWs2bYKSunlIERRQk-9">
          <mxGeometry width="50" height="50" relative="1" as="geometry">
            <mxPoint x="540" y="290" as="sourcePoint" />
            <mxPoint x="590" y="240" as="targetPoint" />
          </mxGeometry>
        </mxCell>
        <mxCell id="zpIUWs2bYKSunlIERRQk-39" value="display_options_favorites()" style="text;html=1;align=center;verticalAlign=middle;resizable=0;points=[];autosize=1;strokeColor=none;fillColor=none;" vertex="1" parent="1">
          <mxGeometry x="530" y="260" width="170" height="30" as="geometry" />
        </mxCell>
        <mxCell id="zpIUWs2bYKSunlIERRQk-40" value="" style="edgeStyle=none;orthogonalLoop=1;jettySize=auto;html=1;rounded=0;" edge="1" parent="1">
          <mxGeometry width="100" relative="1" as="geometry">
            <mxPoint x="50" y="330" as="sourcePoint" />
            <mxPoint x="694.5" y="330" as="targetPoint" />
            <Array as="points" />
          </mxGeometry>
        </mxCell>
        <mxCell id="zpIUWs2bYKSunlIERRQk-41" value="select_option_favorites()" style="text;html=1;align=center;verticalAlign=middle;resizable=0;points=[];autosize=1;strokeColor=none;fillColor=none;" vertex="1" parent="1">
          <mxGeometry x="185" y="290" width="150" height="30" as="geometry" />
        </mxCell>
        <mxCell id="zpIUWs2bYKSunlIERRQk-42" value="" style="edgeStyle=none;orthogonalLoop=1;jettySize=auto;html=1;rounded=0;" edge="1" parent="1" target="aM9ryv3xv72pqoxQDRHE-1">
          <mxGeometry width="100" relative="1" as="geometry">
            <mxPoint x="352.25" y="460" as="sourcePoint" />
            <mxPoint x="227.75" y="460" as="targetPoint" />
            <Array as="points">
              <mxPoint x="242.75" y="460" />
            </Array>
          </mxGeometry>
        </mxCell>
        <mxCell id="zpIUWs2bYKSunlIERRQk-43" value="display()" style="text;html=1;align=center;verticalAlign=middle;resizable=0;points=[];autosize=1;strokeColor=none;fillColor=none;" vertex="1" parent="1">
          <mxGeometry x="210" y="430" width="70" height="30" as="geometry" />
        </mxCell>
        <mxCell id="zpIUWs2bYKSunlIERRQk-46" value="" style="edgeStyle=none;orthogonalLoop=1;jettySize=auto;html=1;rounded=0;" edge="1" parent="1">
          <mxGeometry width="100" relative="1" as="geometry">
            <mxPoint x="692.75" y="504.5" as="sourcePoint" />
            <mxPoint x="867.25" y="504.5" as="targetPoint" />
            <Array as="points">
              <mxPoint x="762.75" y="504.5" />
            </Array>
          </mxGeometry>
        </mxCell>
        <mxCell id="zpIUWs2bYKSunlIERRQk-47" value="check_stock()" style="text;html=1;align=center;verticalAlign=middle;resizable=0;points=[];autosize=1;strokeColor=none;fillColor=none;" vertex="1" parent="1">
          <mxGeometry x="730" y="480" width="100" height="30" as="geometry" />
        </mxCell>
        <mxCell id="zpIUWs2bYKSunlIERRQk-48" value="" style="edgeStyle=none;orthogonalLoop=1;jettySize=auto;html=1;rounded=0;" edge="1" parent="1">
          <mxGeometry width="100" relative="1" as="geometry">
            <mxPoint x="882.75" y="520" as="sourcePoint" />
            <mxPoint x="1037.25" y="520" as="targetPoint" />
            <Array as="points" />
          </mxGeometry>
        </mxCell>
        <mxCell id="zpIUWs2bYKSunlIERRQk-49" value="search_bookshop()" style="text;html=1;align=center;verticalAlign=middle;resizable=0;points=[];autosize=1;strokeColor=none;fillColor=none;" vertex="1" parent="1">
          <mxGeometry x="895" y="490" width="130" height="30" as="geometry" />
        </mxCell>
        <mxCell id="zpIUWs2bYKSunlIERRQk-51" value="search_inventory()" style="text;html=1;align=center;verticalAlign=middle;resizable=0;points=[];autosize=1;strokeColor=none;fillColor=none;" vertex="1" parent="1">
          <mxGeometry x="1065" y="590" width="120" height="30" as="geometry" />
        </mxCell>
        <mxCell id="zpIUWs2bYKSunlIERRQk-52" value="" style="edgeStyle=none;orthogonalLoop=1;jettySize=auto;html=1;rounded=0;strokeColor=none;" edge="1" parent="1" source="zpIUWs2bYKSunlIERRQk-29">
          <mxGeometry width="100" relative="1" as="geometry">
            <mxPoint x="1090" y="660" as="sourcePoint" />
            <mxPoint x="1044.5" y="660" as="targetPoint" />
            <Array as="points" />
          </mxGeometry>
        </mxCell>
        <mxCell id="zpIUWs2bYKSunlIERRQk-53" value="" style="edgeStyle=none;orthogonalLoop=1;jettySize=auto;html=1;rounded=0;dashed=1;" edge="1" parent="1">
          <mxGeometry width="100" relative="1" as="geometry">
            <mxPoint x="1200" y="630" as="sourcePoint" />
            <mxPoint x="1040" y="630" as="targetPoint" />
            <Array as="points" />
          </mxGeometry>
        </mxCell>
        <mxCell id="zpIUWs2bYKSunlIERRQk-54" value="return_price()" style="text;html=1;align=center;verticalAlign=middle;resizable=0;points=[];autosize=1;strokeColor=none;fillColor=none;" vertex="1" parent="1">
          <mxGeometry x="1075" y="630" width="100" height="30" as="geometry" />
        </mxCell>
        <mxCell id="zpIUWs2bYKSunlIERRQk-56" value="" style="edgeStyle=none;orthogonalLoop=1;jettySize=auto;html=1;rounded=0;" edge="1" parent="1" target="zpIUWs2bYKSunlIERRQk-29">
          <mxGeometry width="100" relative="1" as="geometry">
            <mxPoint x="1040" y="590" as="sourcePoint" />
            <mxPoint x="1140" y="590" as="targetPoint" />
            <Array as="points" />
          </mxGeometry>
        </mxCell>
        <mxCell id="zpIUWs2bYKSunlIERRQk-57" value="" style="edgeStyle=none;orthogonalLoop=1;jettySize=auto;html=1;rounded=0;" edge="1" parent="1" target="zpIUWs2bYKSunlIERRQk-32">
          <mxGeometry width="100" relative="1" as="geometry">
            <mxPoint x="1040" y="560" as="sourcePoint" />
            <mxPoint x="980" y="560" as="targetPoint" />
            <Array as="points" />
          </mxGeometry>
        </mxCell>
        <mxCell id="zpIUWs2bYKSunlIERRQk-58" value="add_to_cart()" style="text;html=1;align=center;verticalAlign=middle;resizable=0;points=[];autosize=1;strokeColor=none;fillColor=none;" vertex="1" parent="1">
          <mxGeometry x="1070" y="550" width="90" height="30" as="geometry" />
        </mxCell>
        <mxCell id="zpIUWs2bYKSunlIERRQk-61" value="" style="endArrow=none;dashed=1;html=1;rounded=0;" edge="1" parent="1">
          <mxGeometry width="50" height="50" relative="1" as="geometry">
            <mxPoint x="350" y="840" as="sourcePoint" />
            <mxPoint x="350" y="520" as="targetPoint" />
          </mxGeometry>
        </mxCell>
        <mxCell id="zpIUWs2bYKSunlIERRQk-62" value="" style="endArrow=none;dashed=1;html=1;dashPattern=1 3;strokeWidth=2;rounded=0;" edge="1" parent="1">
          <mxGeometry width="50" height="50" relative="1" as="geometry">
            <mxPoint x="870" y="850" as="sourcePoint" />
            <mxPoint x="870" y="580" as="targetPoint" />
          </mxGeometry>
        </mxCell>
        <mxCell id="zpIUWs2bYKSunlIERRQk-63" value="" style="endArrow=none;dashed=1;html=1;rounded=0;" edge="1" parent="1">
          <mxGeometry width="50" height="50" relative="1" as="geometry">
            <mxPoint x="1030" y="840" as="sourcePoint" />
            <mxPoint x="1030" y="640" as="targetPoint" />
          </mxGeometry>
        </mxCell>
        <mxCell id="zpIUWs2bYKSunlIERRQk-64" value="" style="endArrow=none;dashed=1;html=1;rounded=0;" edge="1" parent="1">
          <mxGeometry width="50" height="50" relative="1" as="geometry">
            <mxPoint x="1380" y="850" as="sourcePoint" />
            <mxPoint x="1380" y="740" as="targetPoint" />
          </mxGeometry>
        </mxCell>
        <mxCell id="zpIUWs2bYKSunlIERRQk-67" value="" style="edgeStyle=none;orthogonalLoop=1;jettySize=auto;html=1;rounded=0;dashed=1;" edge="1" parent="1">
          <mxGeometry width="100" relative="1" as="geometry">
            <mxPoint x="684.37" y="410" as="sourcePoint" />
            <mxPoint x="349.5" y="410" as="targetPoint" />
            <Array as="points" />
          </mxGeometry>
        </mxCell>
        <mxCell id="zpIUWs2bYKSunlIERRQk-45" value="delete_product_favorites()" style="text;html=1;align=center;verticalAlign=middle;resizable=0;points=[];autosize=1;strokeColor=none;fillColor=none;" vertex="1" parent="1">
          <mxGeometry x="370" y="380" width="160" height="30" as="geometry" />
        </mxCell>
        <mxCell id="zpIUWs2bYKSunlIERRQk-69" value="" style="rounded=0;whiteSpace=wrap;html=1;fillColor=none;strokeColor=#FF66B3;" vertex="1" parent="1">
          <mxGeometry x="-20" y="360" width="920" height="110" as="geometry" />
        </mxCell>
        <mxCell id="zpIUWs2bYKSunlIERRQk-70" value="alternative" style="shape=document;whiteSpace=wrap;html=1;boundedLbl=1;fillColor=#f8cecc;strokeColor=#b85450;" vertex="1" parent="1">
          <mxGeometry x="-20" y="360" width="80" height="40" as="geometry" />
        </mxCell>
        <mxCell id="zpIUWs2bYKSunlIERRQk-71" value="delete product" style="text;html=1;align=center;verticalAlign=middle;resizable=0;points=[];autosize=1;strokeColor=none;fillColor=none;" vertex="1" parent="1">
          <mxGeometry x="-20" y="400" width="100" height="30" as="geometry" />
        </mxCell>
        <mxCell id="UkukFAz4V1A8mVQKl4wG-1" value="" style="edgeStyle=none;orthogonalLoop=1;jettySize=auto;html=1;rounded=0;" edge="1" parent="1" target="zpIUWs2bYKSunlIERRQk-6">
          <mxGeometry width="100" relative="1" as="geometry">
            <mxPoint x="360" y="208" as="sourcePoint" />
            <mxPoint x="460" y="208" as="targetPoint" />
            <Array as="points" />
          </mxGeometry>
        </mxCell>
        <mxCell id="UkukFAz4V1A8mVQKl4wG-3" value="" style="edgeStyle=none;orthogonalLoop=1;jettySize=auto;html=1;rounded=0;" edge="1" parent="1" target="zpIUWs2bYKSunlIERRQk-33">
          <mxGeometry width="100" relative="1" as="geometry">
            <mxPoint x="50" y="670" as="sourcePoint" />
            <mxPoint x="660" y="680" as="targetPoint" />
            <Array as="points" />
          </mxGeometry>
        </mxCell>
        <mxCell id="UkukFAz4V1A8mVQKl4wG-4" value="select_finish_order()" style="text;html=1;align=center;verticalAlign=middle;resizable=0;points=[];autosize=1;strokeColor=none;fillColor=none;" vertex="1" parent="1">
          <mxGeometry x="550" y="640" width="130" height="30" as="geometry" />
        </mxCell>
        <mxCell id="UkukFAz4V1A8mVQKl4wG-5" value="" style="rounded=0;whiteSpace=wrap;html=1;fillColor=none;strokeColor=#FF66B3;" vertex="1" parent="1">
          <mxGeometry x="1280" y="690" width="270" height="60" as="geometry" />
        </mxCell>
        <mxCell id="zpIUWs2bYKSunlIERRQk-35" value=":orders" style="shape=umlLifeline;perimeter=lifelinePerimeter;whiteSpace=wrap;html=1;container=0;dropTarget=0;collapsible=0;recursiveResize=0;outlineConnect=0;portConstraint=eastwest;newEdgeStyle={&quot;edgeStyle&quot;:&quot;elbowEdgeStyle&quot;,&quot;elbow&quot;:&quot;vertical&quot;,&quot;curved&quot;:0,&quot;rounded&quot;:0};" vertex="1" parent="1">
          <mxGeometry x="1560" y="60" width="110" height="780" as="geometry" />
        </mxCell>
        <mxCell id="zpIUWs2bYKSunlIERRQk-60" value="place_orders()" style="text;html=1;align=center;verticalAlign=middle;resizable=0;points=[];autosize=1;strokeColor=none;fillColor=none;" vertex="1" parent="1">
          <mxGeometry x="1410" y="750" width="100" height="30" as="geometry" />
        </mxCell>
        <mxCell id="UkukFAz4V1A8mVQKl4wG-8" value="alternative" style="shape=document;whiteSpace=wrap;html=1;boundedLbl=1;fillColor=#f8cecc;strokeColor=#b85450;" vertex="1" parent="1">
          <mxGeometry x="1280" y="690" width="80" height="30" as="geometry" />
        </mxCell>
        <mxCell id="UkukFAz4V1A8mVQKl4wG-9" value="" style="edgeStyle=none;orthogonalLoop=1;jettySize=auto;html=1;rounded=0;" edge="1" parent="1">
          <mxGeometry width="100" relative="1" as="geometry">
            <mxPoint x="1380" y="780" as="sourcePoint" />
            <mxPoint x="1605" y="780" as="targetPoint" />
            <Array as="points" />
          </mxGeometry>
        </mxCell>
        <mxCell id="UkukFAz4V1A8mVQKl4wG-10" value="buy more" style="text;html=1;align=center;verticalAlign=middle;resizable=0;points=[];autosize=1;strokeColor=none;fillColor=none;" vertex="1" parent="1">
          <mxGeometry x="1285" y="720" width="70" height="30" as="geometry" />
        </mxCell>
        <mxCell id="UkukFAz4V1A8mVQKl4wG-11" value="" style="endArrow=classic;html=1;rounded=0;" edge="1" parent="1" target="UkukFAz4V1A8mVQKl4wG-12">
          <mxGeometry width="50" height="50" relative="1" as="geometry">
            <mxPoint x="1390" y="720" as="sourcePoint" />
            <mxPoint x="1600" y="630" as="targetPoint" />
          </mxGeometry>
        </mxCell>
        <mxCell id="UkukFAz4V1A8mVQKl4wG-12" value="Δημιουργία παραγγελίας" style="ellipse;whiteSpace=wrap;html=1;" vertex="1" parent="1">
          <mxGeometry x="1540.0000000000005" y="590" width="120" height="80" as="geometry" />
        </mxCell>
        <mxCell id="UkukFAz4V1A8mVQKl4wG-13" value="" style="rounded=0;whiteSpace=wrap;html=1;fillColor=none;strokeColor=#FF66B3;" vertex="1" parent="1">
          <mxGeometry x="670" y="530" width="730" height="20" as="geometry" />
        </mxCell>
        <mxCell id="UkukFAz4V1A8mVQKl4wG-14" value="" style="endArrow=classic;html=1;rounded=0;" edge="1" parent="1" source="UkukFAz4V1A8mVQKl4wG-13" target="UkukFAz4V1A8mVQKl4wG-15">
          <mxGeometry width="50" height="50" relative="1" as="geometry">
            <mxPoint x="880.5" y="539" as="sourcePoint" />
            <mxPoint x="1600" y="430" as="targetPoint" />
          </mxGeometry>
        </mxCell>
        <mxCell id="UkukFAz4V1A8mVQKl4wG-15" value="Προβολή εναλλακτικών που είναι Out of stock" style="ellipse;whiteSpace=wrap;html=1;" vertex="1" parent="1">
          <mxGeometry x="1570.0000000000005" y="350" width="120" height="80" as="geometry" />
        </mxCell>
        <mxCell id="PTqZIFpzdcNs9bpUd44d-1" value="" style="edgeStyle=none;orthogonalLoop=1;jettySize=auto;html=1;rounded=0;" edge="1" parent="1" target="zpIUWs2bYKSunlIERRQk-32">
          <mxGeometry width="100" relative="1" as="geometry">
            <mxPoint x="1220" y="644.17" as="sourcePoint" />
            <mxPoint x="1320" y="644.17" as="targetPoint" />
            <Array as="points" />
          </mxGeometry>
        </mxCell>
        <mxCell id="PTqZIFpzdcNs9bpUd44d-2" value="display_price()" style="text;html=1;align=center;verticalAlign=middle;resizable=0;points=[];autosize=1;strokeColor=none;fillColor=none;" vertex="1" parent="1">
          <mxGeometry x="1230" y="618" width="100" height="30" as="geometry" />
        </mxCell>
        <mxCell id="PX7UdxkNLMSHrqpAKBsq-1" value="Text" style="text;html=1;align=center;verticalAlign=middle;whiteSpace=wrap;rounded=0;" vertex="1" parent="1">
          <mxGeometry x="60" y="260" width="60" height="30" as="geometry" />
        </mxCell>
        <mxCell id="PX7UdxkNLMSHrqpAKBsq-3" value="&lt;font style=&quot;font-size: 21px;&quot;&gt;&lt;u&gt;&lt;b&gt;Sequence για&amp;nbsp;&lt;/b&gt;&lt;/u&gt;&lt;/font&gt;&lt;div style=&quot;font-size: 21px;&quot;&gt;&lt;font style=&quot;font-size: 21px;&quot;&gt;&lt;u&gt;&lt;b&gt;use case 2&lt;/b&gt;&lt;/u&gt;&lt;/font&gt;&lt;/div&gt;" style="text;html=1;align=center;verticalAlign=middle;resizable=0;points=[];autosize=1;strokeColor=none;fillColor=none;" vertex="1" parent="1">
          <mxGeometry x="-150" y="50" width="160" height="60" as="geometry" />
        </mxCell>
      </root>
    </mxGraphModel>
  </diagram>
</mxfile>
